<svg width="32" height="32" viewBox="0 0 32 32" fill="none" xmlns="http://www.w3.org/2000/svg">
<path d="M2.28938 5.29251L6.28938 1.29251C6.47702 1.10487 6.73152 0.999451 6.99688 0.999451C7.26224 0.999451 7.51674 1.10487 7.70438 1.29251C7.89202 1.48015 7.99744 1.73464 7.99744 2.00001C7.99744 2.26537 7.89202 2.51987 7.70438 2.70751L7.51938 2.89126L14.4156 8.06376L19.1931 9.02001C19.3866 9.05876 19.5644 9.15352 19.7044 9.29251L30.1219 19.7075C30.6844 20.2701 31.0005 21.0331 31.0005 21.8288C31.0005 22.6244 30.6844 23.3874 30.1219 23.95L24.9469 29.125C24.3843 29.6876 23.6212 30.0036 22.8256 30.0036C22.03 30.0036 21.267 29.6876 20.7044 29.125L10.2894 18.7113C10.1501 18.5715 10.0553 18.3936 10.0169 18.2L9.06063 13.4225L3.88813 6.52626L3.70438 6.71126C3.61147 6.80417 3.50117 6.87787 3.37978 6.92815C3.25838 6.97843 3.12827 7.00431 2.99688 7.00431C2.86548 7.00431 2.73538 6.97843 2.61398 6.92815C2.49259 6.87787 2.38229 6.80417 2.28938 6.71126C2.19647 6.61835 2.12277 6.50805 2.07249 6.38665C2.0222 6.26526 1.99632 6.13515 1.99632 6.00376C1.99632 5.87236 2.0222 5.74225 2.07249 5.62086C2.12277 5.49947 2.19647 5.38917 2.28938 5.29626V5.29251ZM20.9969 13.4138L14.4106 20L19.9969 25.5863L26.5831 19L20.9969 13.4138ZM22.8256 28C22.9568 28.0004 23.0868 27.9747 23.208 27.9245C23.3293 27.8743 23.4393 27.8005 23.5319 27.7075L28.7044 22.535C28.8918 22.3475 28.997 22.0932 28.997 21.8281C28.997 21.563 28.8918 21.3088 28.7044 21.1213L27.9969 20.4138L21.4106 27L22.1219 27.7075C22.3087 27.8941 22.5616 27.9992 22.8256 28ZM10.7969 12.4C10.8865 12.5193 10.9481 12.6573 10.9769 12.8038L11.9181 17.5075L12.9969 18.5863L19.5831 12L18.5044 10.9213L13.8006 9.98001C13.6542 9.9512 13.5162 9.88967 13.3969 9.80001L6.09063 4.32001L5.31688 5.09376L10.7969 12.4Z" fill="#1E1E20"/>
</svg>
