<svg width="32" height="32" viewBox="0 0 32 32" fill="none" xmlns="http://www.w3.org/2000/svg">
<path d="M3.01464 4.01622C3.667 3.36557 4.55077 3.00018 5.47214 3.00018C6.39351 3.00018 7.27728 3.36557 7.92964 4.01622L29.7059 25.8C29.832 25.9262 29.9221 26.0839 29.9668 26.2567C30.0114 26.4295 30.009 26.6111 29.9597 26.7827C29.9105 26.9542 29.8163 27.1095 29.6868 27.2323C29.5573 27.3552 29.3973 27.4411 29.2234 27.4812C27.7396 27.8252 26.2215 27.9992 24.6984 28C20.5796 28 16.4584 26.725 12.5796 24.2212C8.60964 21.6587 6.30589 18.7437 6.20464 18.62C6.05396 18.4276 5.9789 18.1868 5.99364 17.9429C6.00838 17.6991 6.11189 17.469 6.28464 17.2962L8.83339 14.75L3.01464 8.92998C2.36467 8.2775 1.99973 7.39406 1.99973 6.4731C1.99973 5.55214 2.36467 4.6687 3.01464 4.01622ZM8.36089 18.055C9.94699 19.7836 11.7474 21.3026 13.7184 22.575C18.0221 25.3375 22.4609 26.44 26.9396 25.8625L13.7484 12.6662L8.36089 18.055ZM4.42839 7.51747L10.2484 13.3375L12.3334 11.25L6.51464 5.42997C6.23798 5.15332 5.86276 4.9979 5.47151 4.9979C5.08027 4.9979 4.70504 5.15332 4.42839 5.42997C4.15173 5.70663 3.99631 6.08185 3.99631 6.4731C3.99631 6.86435 4.15173 7.23957 4.42839 7.51622V7.51747Z" fill="#1E1E20"/>
</svg>
