<svg width="32" height="32" viewBox="0 0 32 32" fill="none" xmlns="http://www.w3.org/2000/svg">
<path d="M5.00698 4.94999C6.2555 3.70151 7.94884 3.00012 9.71449 3.00012C11.4801 3.00012 13.1735 3.70151 14.422 4.94999L27.1095 17.6362C28.3319 18.8901 29.011 20.5751 28.9999 22.3261C28.9887 24.0772 28.2881 25.7534 27.0498 26.9915C25.8114 28.2296 24.1352 28.93 22.3841 28.941C20.6331 28.9519 18.9482 28.2726 17.6945 27.05L5.00574 14.3637C3.75933 13.1143 3.05946 11.4214 3.05969 9.65661C3.05993 7.89178 3.76024 6.19911 5.00698 4.94999ZM19.1082 25.6362C19.9816 26.5098 21.1663 27.0006 22.4015 27.0007C23.6368 27.0009 24.8216 26.5103 25.6951 25.6369C26.5687 24.7635 27.0595 23.5788 27.0596 22.3436C27.0597 21.1083 26.5691 19.9236 25.6957 19.05L20.0595 13.4137L13.472 20L19.1082 25.6362ZM6.42073 12.95L12.0595 18.5862L18.6445 12L13.007 6.36374C12.1301 5.50715 10.9509 5.03077 9.72513 5.03793C8.49933 5.04509 7.32578 5.53522 6.45899 6.402C5.59221 7.26879 5.10208 8.44234 5.09492 9.66814C5.08776 10.8939 5.56414 12.0731 6.42073 12.95ZM8.34949 10.2925C8.25651 10.3854 8.18275 10.4957 8.13243 10.6171C8.0821 10.7385 8.0562 10.8686 8.0562 11C8.0562 11.1314 8.0821 11.2615 8.13243 11.3829C8.18275 11.5043 8.25651 11.6146 8.34949 11.7075L11.3495 14.7075C11.4424 14.8003 11.5527 14.8739 11.674 14.9241C11.7954 14.9744 11.9255 15.0002 12.0568 15.0001C12.1881 15.0001 12.3182 14.9741 12.4395 14.9238C12.5608 14.8735 12.671 14.7998 12.7639 14.7069C12.8567 14.614 12.9303 14.5037 12.9805 14.3823C13.0307 14.261 13.0565 14.1309 13.0565 13.9996C13.0564 13.8682 13.0305 13.7382 12.9802 13.6169C12.9299 13.4955 12.8561 13.3853 12.7632 13.2925L9.76324 10.2925C9.57572 10.1051 9.32146 9.99983 9.05636 9.99983C8.79126 9.99983 8.537 10.1051 8.34949 10.2925Z" fill="#1E1E20"/>
</svg>
