<svg width="26" height="24" viewBox="0 0 26 24" fill="none" xmlns="http://www.w3.org/2000/svg">
<path fill-rule="evenodd" clip-rule="evenodd" d="M12.4454 0.16795C12.7813 -0.0559832 13.2189 -0.0559832 13.5548 0.16795L25.5548 8.16795C25.833 8.35342 26.0001 8.66565 26.0001 9V22C26.0001 22.5304 25.7894 23.0391 25.4143 23.4142C25.0392 23.7893 24.5305 24 24.0001 24H2.00008C1.46965 24 0.960939 23.7893 0.585865 23.4142C0.210792 23.0391 7.81994e-05 22.5304 7.81994e-05 22V9C7.81994e-05 8.66565 0.167179 8.35342 0.445378 8.16795L12.4454 0.16795ZM2.00008 9.53518V22H24.0001V9.53518L13.0001 2.20185L2.00008 9.53518Z" fill="#1E1E20"/>
<path fill-rule="evenodd" clip-rule="evenodd" d="M11.6293 15.4229C11.948 15.874 11.8407 16.498 11.3896 16.8167L1.88964 23.5292C1.43859 23.8479 0.814581 23.7406 0.495878 23.2896C0.177175 22.8385 0.284465 22.2145 0.735515 21.8958L10.2355 15.1833C10.6866 14.8646 11.3106 14.9719 11.6293 15.4229Z" fill="#1E1E20"/>
<path fill-rule="evenodd" clip-rule="evenodd" d="M14.3709 15.4229C14.6896 14.9719 15.3136 14.8646 15.7646 15.1833L25.2646 21.8958C25.7157 22.2145 25.823 22.8385 25.5043 23.2896C25.1856 23.7406 24.5616 23.8479 24.1105 23.5292L14.6105 16.8167C14.1595 16.498 14.0522 15.874 14.3709 15.4229Z" fill="#1E1E20"/>
<path fill-rule="evenodd" clip-rule="evenodd" d="M0.185995 8.41925C0.506733 7.96965 1.13122 7.86518 1.58083 8.18592L11.1327 15H14.8674L24.4193 8.18592C24.8689 7.86518 25.4934 7.96965 25.8142 8.41925C26.1349 8.86886 26.0304 9.49335 25.5808 9.81408L15.7683 16.8141C15.5988 16.935 15.3958 17 15.1876 17H10.8126C10.6044 17 10.4013 16.935 10.2318 16.8141L0.419331 9.81408C-0.0302753 9.49335 -0.134744 8.86886 0.185995 8.41925Z" fill="#1E1E20"/>
</svg>
