<svg width="28" height="27" viewBox="0 0 28 27" fill="none" xmlns="http://www.w3.org/2000/svg">
<path d="M27.8976 10.1575C27.7726 9.77317 27.5366 9.43442 27.2194 9.18395C26.9022 8.93348 26.5179 8.7825 26.1151 8.75001L18.7401 8.15501L15.8926 1.26876C15.7386 0.893531 15.4765 0.57257 15.1396 0.346682C14.8027 0.120794 14.4063 0.000183105 14.0007 0.000183105C13.5951 0.000183105 13.1987 0.120794 12.8618 0.346682C12.5249 0.57257 12.2628 0.893531 12.1088 1.26876L9.26383 8.15376L1.88508 8.75001C1.48156 8.78414 1.09707 8.93659 0.779802 9.18827C0.462533 9.43994 0.226591 9.77965 0.101535 10.1648C-0.0235211 10.55 -0.0321284 10.9635 0.0767912 11.3536C0.185711 11.7436 0.407313 12.0929 0.713834 12.3575L6.33883 17.2113L4.62508 24.4688C4.52924 24.863 4.55271 25.2769 4.69251 25.6578C4.83231 26.0388 5.08214 26.3696 5.41028 26.6082C5.73843 26.8469 6.13009 26.9827 6.53555 26.9984C6.94102 27.014 7.34199 26.9089 7.68758 26.6963L14.0001 22.8113L20.3163 26.6963C20.662 26.9064 21.0622 27.0095 21.4664 26.9927C21.8706 26.9758 22.2608 26.8397 22.5878 26.6016C22.9149 26.3634 23.1641 26.0338 23.3042 25.6543C23.4443 25.2748 23.469 24.8623 23.3751 24.4688L21.6551 17.21L27.2801 12.3563C27.5891 12.092 27.8127 11.7421 27.9226 11.3506C28.0326 10.9592 28.0238 10.544 27.8976 10.1575ZM25.9801 10.8413L19.8926 16.0913C19.7538 16.2109 19.6505 16.3664 19.5941 16.5408C19.5376 16.7152 19.5302 16.9017 19.5726 17.08L21.4326 24.93C21.4374 24.9408 21.4379 24.9531 21.4339 24.9643C21.43 24.9754 21.4219 24.9846 21.4113 24.99C21.3888 25.0075 21.3826 25.0038 21.3638 24.99L14.5238 20.7838C14.3663 20.6869 14.185 20.6356 14.0001 20.6356C13.8152 20.6356 13.6339 20.6869 13.4763 20.7838L6.63633 24.9925C6.61758 25.0038 6.61258 25.0075 6.58883 24.9925C6.57828 24.9871 6.5702 24.9779 6.56625 24.9668C6.56229 24.9556 6.56277 24.9433 6.56758 24.9325L8.42758 17.0825C8.46997 16.9042 8.46255 16.7177 8.40611 16.5433C8.34968 16.3689 8.24641 16.2134 8.10758 16.0938L2.02008 10.8438C2.00508 10.8313 1.99133 10.82 2.00383 10.7813C2.01633 10.7425 2.02633 10.7475 2.04508 10.745L10.0351 10.1C10.2183 10.0843 10.3937 10.0183 10.5419 9.90939C10.6901 9.80044 10.8054 9.65274 10.8751 9.48251L13.9526 2.03126C13.9626 2.01001 13.9663 2.00001 13.9963 2.00001C14.0263 2.00001 14.0301 2.01001 14.0401 2.03126L17.1251 9.48251C17.1954 9.6528 17.3114 9.80035 17.4603 9.90887C17.6092 10.0174 17.7852 10.0827 17.9688 10.0975L25.9588 10.7425C25.9776 10.7425 25.9888 10.7425 26.0001 10.7788C26.0113 10.815 26.0001 10.8288 25.9801 10.8413Z" fill="#1E1E20"/>
</svg>
