<svg width="32" height="32" viewBox="0 0 32 32" fill="none" xmlns="http://www.w3.org/2000/svg">
<path fill-rule="evenodd" clip-rule="evenodd" d="M2.99992 10C2.99992 8.89543 3.89535 8 4.99992 8H26.9999C28.1045 8 28.9999 8.89543 28.9999 10V26C28.9999 27.1046 28.1045 28 26.9999 28H4.99992C3.89535 28 2.99992 27.1046 2.99992 26V10ZM26.9999 10H4.99992V26H26.9999V10Z" fill="#1E1E20"/>
<path fill-rule="evenodd" clip-rule="evenodd" d="M10.8786 4.87868C11.4412 4.31607 12.2043 4 12.9999 4H18.9999C19.7956 4 20.5586 4.31607 21.1212 4.87868C21.6838 5.44129 21.9999 6.20435 21.9999 7V9C21.9999 9.55228 21.5522 10 20.9999 10C20.4476 10 19.9999 9.55228 19.9999 9V7C19.9999 6.73478 19.8946 6.48043 19.707 6.29289C19.5195 6.10536 19.2651 6 18.9999 6H12.9999C12.7347 6 12.4804 6.10536 12.2928 6.29289C12.1053 6.48043 11.9999 6.73478 11.9999 7V9C11.9999 9.55228 11.5522 10 10.9999 10C10.4476 10 9.99992 9.55228 9.99992 9V7C9.99992 6.20435 10.316 5.44129 10.8786 4.87868Z" fill="#1E1E20"/>
<path fill-rule="evenodd" clip-rule="evenodd" d="M28.8656 15.2869C29.1421 15.7649 28.9786 16.3767 28.5006 16.6532C24.7014 18.8503 20.3893 20.0049 16.0006 20C11.6102 20.0111 7.29556 18.8559 3.49806 16.6524C3.02036 16.3753 2.8578 15.7633 3.13497 15.2856C3.41215 14.8079 4.02409 14.6454 4.50178 14.9226C7.9934 16.9485 11.9605 18.0105 15.9973 18L16.0011 18C20.0381 18.0048 24.0047 16.9429 27.4993 14.9218C27.9774 14.6453 28.5891 14.8088 28.8656 15.2869Z" fill="#1E1E20"/>
<path fill-rule="evenodd" clip-rule="evenodd" d="M13.4999 15C13.4999 14.4477 13.9476 14 14.4999 14H17.4999C18.0522 14 18.4999 14.4477 18.4999 15C18.4999 15.5523 18.0522 16 17.4999 16H14.4999C13.9476 16 13.4999 15.5523 13.4999 15Z" fill="#1E1E20"/>
</svg>
