<svg width="32" height="32" viewBox="0 0 32 32" fill="none" xmlns="http://www.w3.org/2000/svg">
<path fill-rule="evenodd" clip-rule="evenodd" d="M18.4525 7.17426L15.9947 9.63207C15.6042 10.0226 14.971 10.0226 14.5805 9.63207C14.19 9.24155 14.19 8.60838 14.5805 8.21786L17.0555 5.74286C17.0664 5.73194 17.0776 5.72129 17.089 5.71089C18.3269 4.58254 19.9521 3.97457 21.6267 4.01334C23.3013 4.05211 24.8965 4.73463 26.081 5.91907C27.2654 7.1035 27.9479 8.69877 27.9867 10.3734C28.0255 12.048 27.4175 13.6731 26.2892 14.9111C26.2784 14.9229 26.2673 14.9345 26.2559 14.9458L22.721 18.4682C22.7206 18.4687 22.7201 18.4691 22.7197 18.4696C22.1173 19.0739 21.4015 19.5535 20.6133 19.8808C19.8247 20.2084 18.9791 20.377 18.1251 20.377C17.2711 20.377 16.4255 20.2084 15.6368 19.8808C14.8481 19.5533 14.1319 19.0732 13.5292 18.4682C13.1394 18.077 13.1405 17.4438 13.5318 17.054C13.9231 16.6642 14.5562 16.6654 14.946 17.0567C15.3629 17.4752 15.8584 17.8072 16.4039 18.0338C16.9495 18.2603 17.5344 18.377 18.1251 18.377C18.7158 18.377 19.3007 18.2603 19.8463 18.0338C20.3918 17.8072 20.8872 17.4752 21.3042 17.0567L21.3067 17.0541L24.8264 13.5469C25.5984 12.6913 26.0139 11.5724 25.9872 10.4197C25.9604 9.25933 25.4875 8.15397 24.6668 7.33328C23.8461 6.51259 22.7407 6.03967 21.5804 6.01281C20.4274 5.98611 19.3082 6.40189 18.4525 7.17426Z" fill="#1E1E20"/>
<path fill-rule="evenodd" clip-rule="evenodd" d="M13.8751 13.6229C13.2844 13.6229 12.6995 13.7396 12.1539 13.9661C11.6084 14.1927 11.1129 14.5248 10.696 14.9432L10.6934 14.9458L7.17381 18.453C6.40181 19.3087 5.98624 20.4276 6.01293 21.5803C6.03979 22.7406 6.51271 23.846 7.3334 24.6666C8.15409 25.4873 9.25945 25.9603 10.4198 25.9871C11.5728 26.0138 12.6919 25.598 13.5477 24.8257L16.0055 22.3679C16.396 21.9773 17.0292 21.9773 17.4197 22.3679C17.8102 22.7584 17.8102 23.3915 17.4197 23.7821L14.9447 26.2571C14.9338 26.268 14.9226 26.2786 14.9112 26.289C13.6732 27.4174 12.0481 28.0254 10.3735 27.9866C8.69889 27.9478 7.10362 27.2653 5.91919 26.0809C4.73475 24.8964 4.05223 23.3012 4.01347 21.6266C3.9747 19.952 4.58266 18.3268 5.71101 17.0888C5.72181 17.077 5.73288 17.0654 5.74423 17.0541L9.27916 13.5317C9.27961 13.5312 9.28006 13.5308 9.28051 13.5303C9.88296 12.926 10.5987 12.4464 11.3868 12.1191C12.1755 11.7916 13.0211 11.6229 13.8751 11.6229C14.7291 11.6229 15.5747 11.7916 16.3633 12.1191C17.152 12.4466 17.8683 12.9267 18.471 13.5317C18.8608 13.9229 18.8596 14.5561 18.4684 14.9459C18.0771 15.3357 17.444 15.3345 17.0542 14.9432C16.6372 14.5248 16.1418 14.1927 15.5963 13.9661C15.0507 13.7396 14.4658 13.6229 13.8751 13.6229Z" fill="#1E1E20"/>
</svg>
