<svg width="32" height="32" viewBox="0 0 32 32" fill="none" xmlns="http://www.w3.org/2000/svg">
<path d="M27.9998 15.9999C27.9998 16.2652 27.8945 16.5195 27.7069 16.7071C27.5194 16.8946 27.265 16.9999 26.9998 16.9999H13.9998C13.7346 16.9999 13.4802 16.8946 13.2927 16.7071C13.1052 16.5195 12.9998 16.2652 12.9998 15.9999C12.9998 15.7347 13.1052 15.4804 13.2927 15.2928C13.4802 15.1053 13.7346 14.9999 13.9998 14.9999H26.9998C27.265 14.9999 27.5194 15.1053 27.7069 15.2928C27.8945 15.4804 27.9998 15.7347 27.9998 15.9999ZM13.9998 8.99995H26.9998C27.265 8.99995 27.5194 8.89459 27.7069 8.70705C27.8945 8.51952 27.9998 8.26516 27.9998 7.99995C27.9998 7.73473 27.8945 7.48038 27.7069 7.29284C27.5194 7.1053 27.265 6.99995 26.9998 6.99995H13.9998C13.7346 6.99995 13.4802 7.1053 13.2927 7.29284C13.1052 7.48038 12.9998 7.73473 12.9998 7.99995C12.9998 8.26516 13.1052 8.51952 13.2927 8.70705C13.4802 8.89459 13.7346 8.99995 13.9998 8.99995ZM26.9998 22.9999H4.99981C4.73459 22.9999 4.48024 23.1053 4.2927 23.2928C4.10517 23.4804 3.99981 23.7347 3.99981 23.9999C3.99981 24.2652 4.10517 24.5195 4.2927 24.7071C4.48024 24.8946 4.73459 24.9999 4.99981 24.9999H26.9998C27.265 24.9999 27.5194 24.8946 27.7069 24.7071C27.8945 24.5195 27.9998 24.2652 27.9998 23.9999C27.9998 23.7347 27.8945 23.4804 27.7069 23.2928C27.5194 23.1053 27.265 22.9999 26.9998 22.9999ZM8.99981 17.9999C9.19771 18.0001 9.3912 17.9415 9.55579 17.8317C9.72039 17.7218 9.84868 17.5656 9.92443 17.3827C10.0002 17.1999 10.02 16.9987 9.98134 16.8046C9.94269 16.6106 9.84732 16.4323 9.70731 16.2924L5.41356 11.9999L9.70731 7.70745C9.89495 7.5198 10.0004 7.26531 10.0004 6.99995C10.0004 6.73458 9.89495 6.48009 9.70731 6.29245C9.51967 6.1048 9.26517 5.99939 8.99981 5.99939C8.73445 5.99939 8.47995 6.1048 8.29231 6.29245L3.29231 11.2924C3.19933 11.3853 3.12557 11.4956 3.07525 11.617C3.02493 11.7384 2.99902 11.8685 2.99902 11.9999C2.99902 12.1314 3.02493 12.2615 3.07525 12.3829C3.12557 12.5043 3.19933 12.6146 3.29231 12.7074L8.29231 17.7074C8.38525 17.8003 8.49557 17.8739 8.61696 17.9241C8.73836 17.9743 8.86845 18 8.99981 17.9999Z" fill="#1E1E20"/>
</svg>
