<svg width="32" height="32" viewBox="0 0 32 32" fill="none" xmlns="http://www.w3.org/2000/svg">
<path d="M31.4699 11.1175L16.4699 3.11746C16.3252 3.04042 16.1638 3.00012 15.9999 3.00012C15.836 3.00012 15.6746 3.04042 15.5299 3.11746L0.529932 11.1175C0.369937 11.2027 0.236132 11.3299 0.142832 11.4853C0.0495308 11.6408 0.000244141 11.8187 0.000244141 12C0.000244141 12.1813 0.0495308 12.3591 0.142832 12.5146C0.236132 12.67 0.369937 12.7972 0.529932 12.8825L3.99993 14.7337V20.7862C3.99889 21.2774 4.17967 21.7516 4.50743 22.1175C6.14493 23.9412 9.81368 27 15.9999 27C18.0511 27.0169 20.087 26.6454 21.9999 25.905V30C21.9999 30.2652 22.1053 30.5195 22.2928 30.7071C22.4804 30.8946 22.7347 31 22.9999 31C23.2651 31 23.5195 30.8946 23.707 30.7071C23.8946 30.5195 23.9999 30.2652 23.9999 30V24.9387C25.3039 24.1859 26.4823 23.234 27.4924 22.1175C27.8202 21.7516 28.001 21.2774 27.9999 20.7862V14.7337L31.4699 12.8825C31.6299 12.7972 31.7637 12.67 31.857 12.5146C31.9503 12.3591 31.9996 12.1813 31.9996 12C31.9996 11.8187 31.9503 11.6408 31.857 11.4853C31.7637 11.3299 31.6299 11.2027 31.4699 11.1175ZM15.9999 25C10.5912 25 7.40993 22.3575 5.99993 20.7862V15.8L15.5299 20.8825C15.6746 20.9595 15.836 20.9998 15.9999 20.9998C16.1638 20.9998 16.3252 20.9595 16.4699 20.8825L21.9999 17.9337V23.7262C20.4249 24.4612 18.4399 25 15.9999 25ZM25.9999 20.7812C25.4005 21.4464 24.7298 22.0437 23.9999 22.5625V16.8662L25.9999 15.8V20.7812ZM23.4999 14.8675L23.4724 14.8512L16.4724 11.1175C16.2389 10.9982 15.9678 10.9754 15.7176 11.054C15.4675 11.1327 15.2582 11.3065 15.1349 11.5379C15.0117 11.7694 14.9842 12.04 15.0586 12.2915C15.1329 12.543 15.3031 12.7552 15.5324 12.8825L21.3749 16L15.9999 18.8662L3.12493 12L15.9999 5.13371L28.8749 12L23.4999 14.8675Z" fill="#1E1E20"/>
</svg>
